<svg width="233" height="298" viewBox="0 0 233 298" fill="none" xmlns="http://www.w3.org/2000/svg">
<path d="M34.0002 50C34.0002 45 34.0002 41 34.0002 36C21.0002 25 34.0002 8 35.0002 0C36.0002 8 50.0002 30 36.0002 37C36.0002 41 36.0002 45 37.0002 49C36.0002 50 36.0002 50 35.0002 51L34.0002 50Z" fill="black"/>
<path d="M38 87C37 80 36 72 35 65L36 64C37 64 38 65 38 65C39 72 40 79 42 86C41 86 41 87 40 88C40 88 39 87 38 87Z" fill="black"/>
<path d="M48 123C46 117 44 111 42 106C43 105 44 104 45 103C45 104 46 104 47 104C49 109 51 115 53 120C52 122 52 123 51 124C50 124 49 123 48 123Z" fill="black"/>
<path d="M66 161C62 155 59 150 57 144C57 143 58 142 59 141C60 142 62 142 63 142C66 147 68 152 71 157V158C70 160 70 161 70 162C69 162 67 161 66 161Z" fill="black"/>
<path d="M93 197C89 193 85 188 81 183C81 182 82 181 83 180C84 180 85 180 87 179C90 184 93 188 97 192C97 192 97 192 97 193C97 194 97 196 97 197C96 197 94 197 93 197Z" fill="black"/>
<path d="M132 232C124 226 117 220 109 214C110 213 110 212 111 210C112 210 113 210 114 209C121 215 128 221 135 226C135 226 135 226 135 227C135 228 136 229 136 231C135 231 133 231 132 232Z" fill="black"/>
<path d="M182 259C180 258 179 257 177 256C169 253 161 249 153 245C153 244 153 243 153 241C155 241 156 240 157 239C164 243 172 247 179 250C181 250 182 251 183 251L184 252C184 254 185 255 186 257C185 257 184 258 182 259Z" fill="black"/>
<path d="M229 271C221 270 213 268 205 266C205 265 204 263 204 262C205 261 206 260 207 259C214 261 221 263 229 264C230 265 231 267 233 268C231 269 230 270 229 271Z" fill="black"/>
<path fill-rule="evenodd" clip-rule="evenodd" d="M70 42C63 47 53 73 36 61C22 75 8 52 0 48C8 50 32 41 36 59C37 41 62 45 70 42Z" fill="black"/>
<path fill-rule="evenodd" clip-rule="evenodd" d="M192 211C196 222 221 246 199 261C210 285 175 291 166 298C172 289 173 256 197 260C175 250 192 222 192 211Z" fill="black"/>
<path fill-rule="evenodd" clip-rule="evenodd" d="M154 192C154 203 172 230 148 238C151 263 119 259 109 264C117 257 126 228 146 236C129 223 151 202 154 192Z" fill="black"/>
<path fill-rule="evenodd" clip-rule="evenodd" d="M122 163C120 173 131 204 107 207C104 231 74 221 63 224C72 219 87 192 105 205C91 188 118 172 122 163Z" fill="black"/>
<path fill-rule="evenodd" clip-rule="evenodd" d="M73 74C67 81 62 108 44 100C32 116 13 96 5 93C14 93 36 80 43 97C40 79 66 79 73 74Z" fill="black"/>
<path fill-rule="evenodd" clip-rule="evenodd" d="M102 134C98 144 104 176 79 175C72 199 43 183 33 183C43 180 63 156 78 173C66 153 96 142 102 134Z" fill="black"/>
<path fill-rule="evenodd" clip-rule="evenodd" d="M88 102C82 111 81 144 57 137C45 159 20 138 10 136C20 134 45 115 56 135C49 113 80 109 88 102Z" fill="black"/>
</svg>
